<svg xmlns="http://www.w3.org/2000/svg" xmlns:xlink="http://www.w3.org/1999/xlink" width="128" height="128" viewBox="0 0 128 128">
  <defs>
    <filter id="Rectángulo_403230" x="0" y="0" width="128" height="128" filterUnits="userSpaceOnUse">
      <feOffset dy="3" input="SourceAlpha"/>
      <feGaussianBlur stdDeviation="3" result="blur"/>
      <feFlood flood-opacity="0.161"/>
      <feComposite operator="in" in2="blur"/>
      <feComposite in="SourceGraphic"/>
    </filter>
    <clipPath id="clip-path">
      <rect id="Rectángulo_403237" data-name="Rectángulo 403237" width="94.373" height="92.755" fill="none"/>
    </clipPath>
  </defs>
  <g id="Grupo_1108396" data-name="Grupo 1108396" transform="translate(-191 -536)">
    <g transform="matrix(1, 0, 0, 1, 191, 536)" filter="url(#Rectángulo_403230)">
      <rect id="Rectángulo_403230-2" data-name="Rectángulo 403230" width="110" height="110" rx="10" transform="translate(9 6)" fill="#fcf7da"/>
    </g>
    <g id="Grupo_1108395" data-name="Grupo 1108395" transform="translate(208 551)">
      <g id="Grupo_1108394" data-name="Grupo 1108394" clip-path="url(#clip-path)">
        <path id="Trazado_898757" data-name="Trazado 898757" d="M954.043,1528.271h0l.005-.016-.005.015" transform="translate(-905.098 -1449.853)" fill="#c9e5f2"/>
        <path id="Trazado_898758" data-name="Trazado 898758" d="M1273.642,1498.727l-.006-.011.025.045-.019-.034" transform="translate(-1208.296 -1421.828)" fill="#c9e5f2"/>
        <path id="Trazado_898759" data-name="Trazado 898759" d="M1210.074,1434.087l0,0-.012-.007.036.021-.02-.012" transform="translate(-1147.979 -1360.506)" fill="#c9e5f2"/>
        <path id="Trazado_898760" data-name="Trazado 898760" d="M1230.823,1448.465h0l-.062-.049.065.052,0,0" transform="translate(-1167.62 -1374.108)" fill="#c9e5f2"/>
        <path id="Trazado_898761" data-name="Trazado 898761" d="M1117.007,1409.652l-.211,0-.2,0,.2,0,.211,0" transform="translate(-1059.307 -1337.331)" fill="#c9e5f2"/>
        <path id="Trazado_898762" data-name="Trazado 898762" d="M962.5,1411.357a9.818,9.818,0,0,0-4.72,1.237l-.005,0-.143.089-.041.026-.129.085-.061.042-.094.065-.066.047-.086.062-.067.05-.083.063-.066.051-.084.067-.062.05-.1.08-.057.048-.126.109-.059.053-.079.072-.063.059-.073.069-.064.062-.07.069-.063.063-.069.071-.061.063-.072.078-.054.059-.117.133-.054.063-.067.079-.057.07-.061.075-.057.072-.059.076-.055.073-.057.078-.053.073-.058.083-.049.07-.1.142-.047.072-.058.09-.047.076-.051.084-.046.078-.049.084-.045.079-.048.087-.042.078-.048.093-.038.074c-.021.042-.042.085-.063.128l-.042.088-.055.117-.033.074-.044.1-.033.078-.04.1-.032.079-.039.1-.029.078c-.013.036-.026.072-.039.108l-.025.071-.005.016c0,.021,0,.042-.005.063,0,0,3.154-5.14,8.557-5.14,5.358,0,8.5,5.054,8.556,5.139v0c-.017-.052-.036-.1-.054-.155l-.016-.046q-.036-.1-.073-.2l0-.013q-.035-.089-.072-.178l-.011-.026c-.024-.057-.048-.113-.073-.169l-.014-.031c-.025-.055-.05-.11-.076-.164l-.016-.033q-.038-.081-.079-.16l-.017-.035c-.026-.052-.053-.1-.081-.155l-.02-.038c-.026-.049-.053-.1-.08-.146l-.025-.045c-.025-.044-.05-.087-.076-.13l-.033-.056-.074-.121-.039-.062-.074-.114-.043-.066-.074-.109-.047-.068-.075-.1-.05-.069-.076-.1-.053-.069-.077-.1-.055-.068-.079-.1-.057-.067-.081-.094-.058-.066-.084-.093-.058-.063-.088-.092-.057-.059-.092-.093-.055-.054-.1-.094-.052-.048-.106-.1-.045-.04-.116-.1-.035-.03-.129-.108-.065-.052-.153-.12-.064-.049-.089-.066-.066-.048-.091-.065-.065-.045q-.093-.064-.188-.127l-.044-.029-.1-.064-.06-.037-.105-.064-.036-.021-.026-.015a9.777,9.777,0,0,0-4.556-1.151" transform="translate(-904.999 -1338.951)" fill="#c9e5f2"/>
        <path id="Trazado_898763" data-name="Trazado 898763" d="M1286.126,1525.786l.016.046-.016-.046" transform="translate(-1220.145 -1447.51)" fill="#c9e5f2"/>
        <path id="Trazado_898764" data-name="Trazado 898764" d="M1287.49,1529.705v0h0" transform="translate(-1221.438 -1451.225)" fill="#c9e5f2"/>
        <path id="Trazado_898765" data-name="Trazado 898765" d="M1033.47,1409.738a9.776,9.776,0,0,1,4.556,1.151q-.162-.1-.328-.184l-.047-.025q-.1-.051-.194-.1l-.045-.022-.1-.047-.072-.034-.093-.043-.144-.063-.085-.036-.095-.039-.08-.032-.157-.059-.072-.026-.115-.04-.069-.024-.169-.055-.06-.018-.133-.04-.061-.017-.179-.049-.047-.012-.151-.037-.054-.013-.189-.041-.035-.007-.166-.032-.05-.009-.2-.033-.023,0-.182-.026-.046-.006-.2-.023h-.011l-.2-.017-.045,0q-.208-.015-.418-.021h-.044l-.211,0-.2,0h-.051l-.151.005-.066,0-.136.008-.069,0-.134.011-.067.006-.142.015-.056.006-.187.024h-.009l-.2.03-.043.007-.15.026-.062.012-.13.026-.068.014-.125.028-.067.016-.129.032-.059.015-.154.042-.032.009-.187.056-.037.012-.146.047-.061.021-.12.042-.067.024-.114.043-.068.026-.114.046-.064.026-.126.054-.049.021-.173.078-.031.015-.139.067-.061.031-.108.055-.067.035-.1.054-.068.038-.1.056-.066.038-.1.061-.053.032a9.82,9.82,0,0,1,4.72-1.237" transform="translate(-975.973 -1337.332)" fill="#c9e5f2"/>
        <path id="Trazado_898766" data-name="Trazado 898766" d="M1125.557,1409.724q.21.006.418.021-.208-.015-.418-.021" transform="translate(-1067.813 -1337.402)" fill="#c9e5f2"/>
        <path id="Trazado_898767" data-name="Trazado 898767" d="M873.135,1498.727l-.006-.011.025.045-.019-.034" transform="translate(-828.336 -1421.828)" fill="#c9e5f2"/>
        <path id="Trazado_898768" data-name="Trazado 898768" d="M553.536,1528.269h0l.005-.016-.005.015" transform="translate(-525.138 -1449.851)" fill="#c9e5f2"/>
        <path id="Trazado_898769" data-name="Trazado 898769" d="M830.3,1448.454h0l-.062-.05.066.053,0,0" transform="translate(-787.647 -1374.098)" fill="#c9e5f2"/>
        <path id="Trazado_898770" data-name="Trazado 898770" d="M809.566,1434.085l0,0-.012-.007.036.021-.02-.012" transform="translate(-768.018 -1360.505)" fill="#c9e5f2"/>
        <path id="Trazado_898771" data-name="Trazado 898771" d="M716.5,1409.652l-.211,0-.2,0,.2,0,.211,0" transform="translate(-679.347 -1337.331)" fill="#c9e5f2"/>
        <path id="Trazado_898772" data-name="Trazado 898772" d="M561.989,1411.357a9.819,9.819,0,0,0-4.72,1.237l-.005,0-.143.09-.04.026-.13.085-.061.042-.094.065-.066.047-.086.062-.068.05-.083.063-.066.051-.084.067-.062.05-.1.08-.056.047-.127.11-.059.053-.079.072-.063.059-.073.069-.064.062-.07.069-.063.063-.069.071-.06.063-.073.078-.054.059-.118.133-.054.063-.067.079-.057.07-.061.075-.057.072-.059.076-.055.073-.057.078-.053.073-.058.083-.049.07-.1.142-.047.072-.058.09-.047.076-.052.084-.046.078-.049.085-.045.079-.048.087-.042.078-.049.093-.038.073-.063.128-.042.088-.055.118-.033.074-.044.1-.033.078-.04.1-.032.079-.039.1-.029.078-.039.109-.025.071-.005.016c0,.021,0,.042-.005.063,0,0,3.154-5.14,8.557-5.14,5.357,0,8.5,5.053,8.556,5.139v0c-.017-.05-.034-.1-.052-.15l-.017-.05q-.035-.1-.073-.2l-.005-.013q-.035-.089-.072-.177l-.011-.027q-.036-.085-.073-.168l-.014-.032q-.037-.082-.075-.164l-.016-.034c-.026-.054-.052-.107-.078-.16l-.017-.035c-.026-.052-.053-.1-.081-.155l-.02-.038q-.039-.073-.08-.146l-.025-.045c-.025-.044-.05-.087-.076-.13l-.033-.056-.074-.121-.039-.062-.074-.114-.043-.066-.074-.109-.047-.068-.075-.1-.05-.069-.076-.1-.053-.069-.077-.1-.055-.069-.079-.1-.057-.067-.081-.094-.058-.065-.084-.093-.058-.063-.088-.092-.058-.059-.092-.093-.055-.054-.1-.094-.052-.048-.105-.1-.045-.04-.115-.1-.035-.03-.129-.108-.066-.053-.152-.12-.064-.049-.089-.066-.066-.048-.09-.065-.066-.045q-.093-.064-.187-.126l-.045-.03-.1-.064-.06-.037-.105-.064-.036-.021-.026-.015a9.777,9.777,0,0,0-4.556-1.151" transform="translate(-525.039 -1338.951)" fill="#c9e5f2"/>
        <path id="Trazado_898773" data-name="Trazado 898773" d="M886.98,1529.694v0h0" transform="translate(-841.475 -1451.213)" fill="#c9e5f2"/>
        <path id="Trazado_898774" data-name="Trazado 898774" d="M885.622,1525.79l.017.05-.017-.05" transform="translate(-840.188 -1447.513)" fill="#c9e5f2"/>
        <path id="Trazado_898775" data-name="Trazado 898775" d="M632.963,1409.738a9.775,9.775,0,0,1,4.556,1.151q-.162-.1-.328-.184l-.048-.025q-.1-.05-.193-.1l-.045-.022-.1-.047-.072-.034-.093-.043-.144-.063-.085-.036-.095-.039-.08-.032-.157-.06-.072-.026-.115-.04-.069-.024-.169-.055-.06-.018-.134-.04-.061-.017-.18-.049-.047-.012-.15-.037-.054-.013-.189-.041-.035-.007-.166-.032-.05-.009-.2-.033-.023,0-.181-.026-.046-.006-.2-.023h-.011l-.2-.017-.045,0q-.208-.015-.418-.021h-.044l-.211,0-.2,0H632.7l-.151.005-.066,0-.136.008-.069,0-.134.011-.067.006-.142.015-.056.006-.187.024h-.008l-.2.03-.043.007-.15.026-.062.012-.13.026-.068.014-.125.028-.067.016-.129.032-.059.015-.154.042-.033.009-.187.056-.036.012-.146.047-.061.021-.12.042-.067.024-.114.043-.068.026-.114.046-.064.026-.126.054-.049.021-.173.078-.031.015-.139.067-.061.031-.108.055-.067.035-.1.054-.068.038-.1.056-.066.038-.1.061-.054.032a9.82,9.82,0,0,1,4.72-1.237" transform="translate(-596.013 -1337.332)" fill="#c9e5f2"/>
        <path id="Trazado_898776" data-name="Trazado 898776" d="M725.051,1409.724q.21.006.418.021-.208-.015-.418-.021" transform="translate(-687.854 -1337.402)" fill="#c9e5f2"/>
        <path id="Trazado_898777" data-name="Trazado 898777" d="M1187.26,1572.115a.691.691,0,0,0-.807.685.7.7,0,0,0,.7.7.695.695,0,0,0,.112-1.381" transform="translate(-1125.585 -1491.452)" fill="#192244"/>
        <path id="Trazado_898778" data-name="Trazado 898778" d="M1028.6,1572.1a.7.7,0,1,0,.7.7.7.7,0,0,0-.7-.7" transform="translate(-975.167 -1491.452)" fill="#192244"/>
        <path id="Trazado_898779" data-name="Trazado 898779" d="M786.753,1572.115a.687.687,0,0,0-.112-.01.7.7,0,1,0,0,1.391.687.687,0,0,0,.112-.01.694.694,0,0,0,0-1.371" transform="translate(-745.625 -1491.452)" fill="#192244"/>
        <path id="Trazado_898780" data-name="Trazado 898780" d="M628.09,1572.1a.7.7,0,1,0,.7.7.7.7,0,0,0-.7-.7" transform="translate(-595.208 -1491.452)" fill="#192244"/>
        <path id="Trazado_898781" data-name="Trazado 898781" d="M643.237,9.057l-1.563-.795a1.39,1.39,0,0,1-.578-1.926l.784-1.376a2.162,2.162,0,0,0-.815-2.952L637.6.05a.386.386,0,1,0-.38.672l3.462,1.958a1.39,1.39,0,0,1,.524,1.9l-.784,1.376a2.162,2.162,0,0,0,.9,3l1.563.795a1.39,1.39,0,0,1,.348,2.226l-1.825,1.807a.386.386,0,0,0,.543.549l1.825-1.807a2.162,2.162,0,0,0-.541-3.464" transform="translate(-604.346 0)" fill="#9dc08b"/>
        <path id="Trazado_898782" data-name="Trazado 898782" d="M1169.366,918.528a2.195,2.195,0,0,0-1.525-1.324l-1.746-.432a1.426,1.426,0,0,1-1.024-1.791l.464-1.557a2.219,2.219,0,0,0-1.5-2.762l-3.915-1.153a.4.4,0,1,0-.224.76l3.915,1.153a1.426,1.426,0,0,1,.964,1.775l-.464,1.557a2.218,2.218,0,0,0,1.594,2.787l1.746.432a1.426,1.426,0,0,1,.864,2.144l-1.4,2.229a.4.4,0,1,0,.671.423l1.4-2.229a2.2,2.2,0,0,0,.181-2.012" transform="translate(-1100.122 -862.833)" fill="#edf1d6"/>
        <path id="Trazado_898783" data-name="Trazado 898783" d="M497.714,1383.567v-17.692a2.561,2.561,0,0,0-2.561-2.561H452.281a2.561,2.561,0,0,0-2.561,2.561v17.692a2.561,2.561,0,0,0,2.561,2.561h42.873a2.561,2.561,0,0,0,2.561-2.561m-24.559-5.645h0a10.009,10.009,0,0,1-.788,1.767,10.124,10.124,0,0,1-2.395,2.839h0a10.092,10.092,0,0,1-1.237.866l0,0a10.08,10.08,0,0,1-15.132-7.3,10.139,10.139,0,0,1-.092-1.229q0-.074,0-.149a10.221,10.221,0,0,1,.081-1.287h0a10.014,10.014,0,0,1,.461-1.983h0l.006-.016.028-.079c.014-.04.029-.081.044-.121l.033-.087.043-.112.035-.089.045-.109.037-.088.049-.111.037-.083.061-.131.047-.1c.023-.048.046-.1.07-.143l.043-.083.054-.1.047-.088.053-.1.05-.088.055-.094.052-.087.057-.094.052-.084.065-.1.052-.08q.053-.08.107-.16l.055-.078.065-.092.06-.082.064-.086.062-.082.065-.084.064-.081.068-.084.064-.078.074-.088.06-.071.131-.148.061-.066.081-.087.068-.071.077-.079.07-.071.078-.077.071-.069.081-.077.071-.066.088-.08.067-.06.14-.121.065-.054.108-.089.07-.056.094-.074.074-.057.093-.07.076-.056.1-.069.074-.053.1-.072.068-.046.144-.095.046-.03.159-.1.066-.04.115-.068.074-.043.11-.062.077-.042.112-.06.075-.04.121-.061.068-.034.154-.074.036-.017.193-.087.055-.024.141-.06.071-.029.127-.051.076-.029.127-.047.076-.027.134-.047.069-.024.163-.053.041-.013.209-.062.037-.01.172-.047.067-.017.144-.036.075-.018.139-.031.076-.016.145-.029.07-.014.167-.029.048-.008.221-.034h.01l.208-.027.062-.007.159-.017.075-.007.149-.012.078-.005.151-.009.074,0,.168-.006.057,0,.228,0c.079,0,.158,0,.236,0h.05q.235.007.467.024l.05,0,.218.019h.013l.228.026.052.007.2.028.026,0,.22.036.056.01.186.036.039.008.211.046.061.014.168.041.053.013.2.054.068.02.149.044.067.02.188.061.078.027.128.045.081.029.175.067.09.036.105.043.1.04.16.07.1.048.08.037.11.052.049.024q.11.054.218.111l.052.027q.2.107.4.222l.013.008,0,0,.022.013.118.071.067.042.113.071.049.032q.106.07.21.142l.073.051.1.072.074.054.1.074.072.055q.086.066.171.134l.068.055h0l0,0,.144.121.039.033.129.113.05.044.118.109.057.053.11.106.062.06.1.1.064.065.1.1.065.07.094.1.065.073.091.105.063.075.088.107.062.077.086.109.059.077.084.113.056.077.083.117.052.076.082.121.048.073.082.127.043.069c.028.045.056.09.083.135l.037.062c.028.048.057.1.084.145l.007.012.021.039q.046.081.09.163l.023.043q.046.086.09.173l.019.039c.03.059.059.119.088.179l.017.037q.043.091.084.183l.016.036q.041.094.081.188l.012.029q.041.1.08.2l.005.014q.042.108.082.218l.02.057c.02.055.039.11.058.166l0,.005h0a10.128,10.128,0,0,1,0,6.4m20.547,0h0a10,10,0,0,1-.788,1.767,10.124,10.124,0,0,1-2.395,2.839h0a10.1,10.1,0,0,1-1.237.866l0,0a10.08,10.08,0,0,1-15.132-7.3,10.146,10.146,0,0,1-.092-1.229q0-.074,0-.149a10.221,10.221,0,0,1,.081-1.287h0a10.014,10.014,0,0,1,.461-1.983h0l.006-.016.028-.08c.014-.04.029-.081.043-.12l.033-.087.043-.112.035-.089.045-.109.037-.088.049-.111.037-.083c.02-.044.041-.088.061-.132l.046-.1c.023-.048.047-.1.071-.144l.043-.083.054-.1.047-.088.053-.1.05-.089.054-.094.052-.088.057-.094.052-.085.065-.1.049-.076q.054-.082.11-.163l.055-.078.065-.092.06-.082.064-.086.062-.082.065-.084.064-.081.068-.084.064-.078.075-.088.06-.07q.065-.075.131-.148l.06-.066.081-.087.068-.071.077-.079.07-.071.078-.077.072-.069.081-.077.071-.066.088-.08.066-.06.139-.12.066-.056.107-.089.07-.056.094-.075.074-.057.093-.071.075-.056.1-.069.074-.053.1-.072.068-.046.144-.1.045-.029.159-.1.066-.04.115-.068.074-.043.11-.062.076-.042.112-.06.075-.04.121-.061.068-.034.155-.074.036-.017.193-.087.055-.024.141-.06.071-.029.128-.051.076-.029.127-.047.076-.027.134-.047.069-.024.163-.053.041-.013.209-.062.037-.01.172-.047.067-.017.144-.036.075-.018.139-.031.076-.016.145-.029.07-.014.167-.029.048-.008.221-.034h.01l.208-.027.062-.007.158-.017.075-.007.149-.012.078-.005.151-.009.074,0,.168-.006.057,0,.228,0c.079,0,.158,0,.236,0h.049q.235.007.467.024l.05,0,.218.019h.012l.228.026.052.007.2.028.026,0,.22.036.056.01.186.036.039.008.211.046.061.014.168.041.053.013.2.054.068.02.148.044.067.02.188.061.078.026.128.045.081.029.175.066.089.036.105.043.1.04.16.07.1.048.08.037.11.052.049.024q.11.054.218.111l.052.027q.2.107.4.222l.013.008,0,0,.022.013.118.071.067.042.113.071.049.032q.106.07.211.142l.073.051.1.072.073.054.1.074.071.055q.087.067.172.135l.068.054h0l0,0,.144.121.039.033.129.113.051.045.118.108.058.053.11.106.062.06.1.1.064.066.1.1.065.07.094.1.065.073.091.1.064.075.088.107.062.077.086.109.059.077.084.113.056.077.083.116.053.076.082.121.048.073.082.127.043.069c.028.045.056.09.083.135l.037.063c.028.048.057.1.084.144l.007.012.021.039c.03.054.06.108.09.162l.023.043q.046.086.09.172l.019.039c.03.059.059.119.088.178l.018.038c.029.061.057.121.084.183l.016.036q.041.094.081.188l.012.029q.041.1.08.2l.005.014q.042.108.082.218l.022.064c.019.053.038.106.056.16l0,.005h0a10.129,10.129,0,0,1,0,6.4" transform="translate(-426.648 -1293.374)" fill="#bad7e9"/>
        <path id="Trazado_898784" data-name="Trazado 898784" d="M953.6,1429.591c-5.4,0-8.557,5.14-8.557,5.14,0-.021,0-.042.005-.063a8.969,8.969,0,0,0-.413,1.776h0a9.149,9.149,0,0,0-.073,1.153c0,.045,0,.089,0,.133a9.074,9.074,0,0,0,.083,1.1,8.976,8.976,0,0,0,.4,1.7c0-.021,0-.042-.005-.064,0,0,3.154,5.14,8.557,5.14,5.361,0,8.508-5.06,8.556-5.139h0a9.069,9.069,0,0,0,0-5.734c-.052-.085-3.2-5.139-8.556-5.139m-3.6,9.579a1.64,1.64,0,1,1,1.176-1.573A1.637,1.637,0,0,1,950,1439.17m3.595-1.129a.444.444,0,1,1,.444-.443.443.443,0,0,1-.444.443m4.075,1.2a1.64,1.64,0,1,1,1.64-1.64,1.638,1.638,0,0,1-1.64,1.64" transform="translate(-896.108 -1356.25)" fill="#bad7e9"/>
        <path id="Trazado_898785" data-name="Trazado 898785" d="M1203.515,1430.4l-.023-.014q-.163-.1-.331-.185.166.088.328.184l.026.015" transform="translate(-1141.436 -1356.83)" fill="#bad7e9"/>
        <path id="Trazado_898786" data-name="Trazado 898786" d="M1028.7,1434.846l-.055.033,0,0,.005,0,.053-.032" transform="translate(-975.874 -1361.235)" fill="#bad7e9"/>
        <path id="Trazado_898787" data-name="Trazado 898787" d="M803.011,1430.4l-.023-.014q-.163-.1-.331-.185.166.088.328.184l.026.015" transform="translate(-761.479 -1356.83)" fill="#bad7e9"/>
        <path id="Trazado_898788" data-name="Trazado 898788" d="M553.1,1429.591c-5.4,0-8.557,5.14-8.557,5.14,0-.021,0-.042.005-.063a8.969,8.969,0,0,0-.413,1.776h0a9.138,9.138,0,0,0-.073,1.153c0,.045,0,.089,0,.133a9.074,9.074,0,0,0,.083,1.1,8.975,8.975,0,0,0,.4,1.7c0-.021,0-.042-.005-.064,0,0,3.154,5.14,8.557,5.14,5.361,0,8.508-5.06,8.556-5.139h0a9.07,9.07,0,0,0,0-5.734c-.053-.086-3.2-5.139-8.556-5.139m-3.6,9.579a1.64,1.64,0,1,1,1.176-1.573,1.636,1.636,0,0,1-1.176,1.573m3.595-1.129a.444.444,0,1,1,.444-.443.443.443,0,0,1-.444.443m4.075,1.2a1.64,1.64,0,1,1,1.64-1.64,1.638,1.638,0,0,1-1.64,1.64" transform="translate(-516.148 -1356.25)" fill="#bad7e9"/>
        <path id="Trazado_898789" data-name="Trazado 898789" d="M628.2,1434.847l-.055.033,0,0,.005,0,.053-.032" transform="translate(-595.914 -1361.236)" fill="#bad7e9"/>
        <path id="Trazado_898790" data-name="Trazado 898790" d="M458.342,935.966a.4.4,0,0,0,.393.352l.045,0a.4.4,0,0,0,.349-.438l-.295-2.618a1.426,1.426,0,0,1,1.711-1.555l1.76.371a2.218,2.218,0,0,0,2.647-1.816l.26-1.6a1.426,1.426,0,0,1,1.64-1.179l4.027.664a.4.4,0,0,0,.129-.782l-4.027-.664a2.219,2.219,0,0,0-2.551,1.834l-.26,1.6a1.426,1.426,0,0,1-1.7,1.167l-1.76-.371a2.218,2.218,0,0,0-2.662,2.419Z" transform="translate(-434.535 -879.123)" fill="#bad7e9"/>
        <path id="Trazado_898791" data-name="Trazado 898791" d="M1033.9,102.984l-1.306,0a1.783,1.783,0,0,0-1.779,1.793l.017,3.28a.319.319,0,0,0,.319.317h0a.319.319,0,0,0,.317-.32l-.017-3.28a1.146,1.146,0,0,1,1.144-1.152l1.306,0a1.783,1.783,0,0,0,1.777-1.871l-.071-1.444a1.146,1.146,0,0,1,1.451-1.161l2.041.566a.319.319,0,0,0,.17-.614l-2.041-.566a1.783,1.783,0,0,0-2.258,1.806l.071,1.444a1.146,1.146,0,0,1-1.142,1.2" transform="translate(-977.935 -93.413)" fill="#bad7e9"/>
        <path id="Trazado_898792" data-name="Trazado 898792" d="M955.341,722.027h0V718.05h0Z" transform="translate(-906.33 -681.212)" fill="#bad7e9"/>
        <rect id="Rectángulo_403232" data-name="Rectángulo 403232" height="3.977" transform="translate(49.011 18.615)" fill="#bad7e9"/>
        <rect id="Rectángulo_403233" data-name="Rectángulo 403233" height="7.982" transform="translate(49.011 25.724)" fill="#bad7e9"/>
        <path id="Trazado_898793" data-name="Trazado 898793" d="M1037.124,372.962c0-.449-.01-1.054-.056-1.846a1.3,1.3,0,0,0-.323-.791c-1.1-1.28-4.6-1.211-4.742-3.72a5.2,5.2,0,0,0-2.2-3.75h-10.407v22.2h10.652A5.073,5.073,0,0,0,1032,381.5c.149-2.569,3.817-2.434,4.817-3.814a1.288,1.288,0,0,0,.247-.7c.054-.916.062-1.581.054-2.045,0-.153-.007-.284-.013-.395q-.024-.5,0-.993c.007-.156.013-.352.015-.594m-15.769,7.98a1.43,1.43,0,1,1,1.43-1.43,1.431,1.431,0,0,1-1.43,1.43m0-11.114a1.431,1.431,0,1,1,1.43-1.431,1.431,1.431,0,0,1-1.43,1.431" transform="translate(-967.096 -344.24)" fill="#bad7e9"/>
        <path id="Trazado_898794" data-name="Trazado 898794" d="M884.205,366.8v18.255h0v-22.2h0Z" transform="translate(-838.843 -344.239)" fill="#bad7e9"/>
        <path id="Trazado_898795" data-name="Trazado 898795" d="M474.526,374.943c-.008.464,0,1.129.054,2.045a1.287,1.287,0,0,0,.247.7c1,1.38,4.668,1.245,4.817,3.814a5.073,5.073,0,0,0,1.958,3.555h10.652v-22.2H481.847a5.2,5.2,0,0,0-2.2,3.75c-.145,2.509-3.646,2.44-4.742,3.72a1.3,1.3,0,0,0-.323.791c-.047.792-.059,1.4-.056,1.846,0,.241.007.438.015.594q.024.5,0,.993c-.005.111-.01.242-.013.395m15.766-7.976a1.431,1.431,0,1,1-1.43,1.431,1.431,1.431,0,0,1,1.43-1.431m0,11.114a1.431,1.431,0,1,1-1.43,1.431,1.431,1.431,0,0,1,1.43-1.431" transform="translate(-450.179 -344.24)" fill="#bad7e9"/>
        <path id="Trazado_898796" data-name="Trazado 898796" d="M1405.938,562.469a8.846,8.846,0,0,0-6.3-2.608h-11.873v1.981h11.873a6.931,6.931,0,0,1,6.923,6.923v35.689a6.931,6.931,0,0,1-6.923,6.923h-11.926v-2.259l-2.477-1.141V617l2.477-1.141v-2.5h11.926a8.9,8.9,0,0,0,8.9-8.9V568.765a8.846,8.846,0,0,0-2.608-6.3" transform="translate(-1314.173 -531.139)" fill="#2b3467"/>
        <path id="Trazado_898797" data-name="Trazado 898797" d="M20.83,611.377H8.9a6.931,6.931,0,0,1-6.923-6.923V568.765A6.931,6.931,0,0,1,8.9,561.842H20.777v-1.981H8.9a8.9,8.9,0,0,0-8.9,8.9v35.689a8.9,8.9,0,0,0,8.9,8.9H20.83v2.5l2.241,1.032v-8.8l-2.241,1.032Z" transform="translate(0 -531.139)" fill="#2b3467"/>
        <path id="Trazado_898798" data-name="Trazado 898798" d="M939.228,1407.847l0,0a10.1,10.1,0,0,0,1.237-.866h0a10.124,10.124,0,0,0,2.395-2.839,10,10,0,0,0,.788-1.767h0a10.129,10.129,0,0,0,0-6.4h0l0-.005c-.018-.054-.037-.107-.055-.16l-.022-.064q-.04-.109-.082-.218l-.005-.014c-.026-.067-.053-.133-.08-.2l-.012-.029q-.04-.095-.081-.188l-.016-.035q-.041-.092-.084-.183l-.018-.037q-.043-.09-.088-.178l-.019-.039q-.044-.087-.09-.172l-.023-.043c-.029-.054-.059-.109-.089-.162l-.021-.039-.007-.012c-.028-.048-.056-.1-.084-.144l-.037-.063-.083-.135-.043-.069-.082-.127-.048-.073-.082-.121-.053-.076-.083-.116-.056-.077-.084-.113-.059-.077-.086-.109-.062-.077-.088-.107-.064-.075-.091-.1-.065-.073-.094-.1-.065-.07-.1-.1-.064-.066-.1-.1-.062-.06-.11-.105-.057-.054-.118-.108-.05-.045-.129-.113-.039-.033-.144-.121,0,0h0l-.068-.055q-.085-.068-.172-.135l-.071-.055-.1-.074-.073-.053-.1-.072-.073-.051q-.1-.072-.211-.142l-.049-.032-.113-.071-.067-.042-.118-.071-.022-.013,0,0-.013-.008q-.2-.116-.4-.222l-.052-.027q-.108-.057-.218-.111l-.049-.024-.11-.052-.08-.037-.1-.048-.16-.07-.1-.04-.105-.043-.089-.036-.175-.067-.081-.029-.128-.045-.078-.027-.188-.061-.067-.02-.149-.044-.068-.02-.2-.054-.053-.013-.168-.041-.061-.014-.211-.046-.039-.008-.186-.035-.056-.01-.22-.036-.026,0-.2-.028-.052-.007-.228-.026h-.012l-.218-.019-.05,0q-.232-.017-.467-.024h-.049c-.079,0-.157,0-.236,0l-.228,0-.057,0-.168.006-.074,0-.151.009-.078.005-.149.012-.075.007-.158.017-.062.007-.208.027h-.01l-.221.034-.048.008-.167.03-.07.014-.145.029-.076.016-.139.031-.075.018-.144.036-.067.017-.172.047-.037.01-.209.062-.041.013-.163.053-.069.024-.134.047-.076.027-.127.047-.076.029-.128.051-.071.029-.141.06-.055.024-.193.087-.036.017-.155.074-.068.034-.121.061-.075.04-.112.06-.076.042-.11.062-.074.043-.115.068-.066.04-.159.1-.045.029-.144.095-.068.046-.1.072-.074.053-.1.07-.075.056-.093.07-.074.057-.094.075-.07.056-.107.089-.066.056-.139.12-.066.06-.088.08-.071.066-.081.077-.071.069-.078.077-.07.071-.077.079-.068.071-.081.087-.06.066-.131.148-.06.071-.075.088-.064.078-.068.084-.063.081-.065.084-.062.082-.064.086-.06.082-.065.093-.055.078q-.055.081-.11.163l-.049.076-.065.1-.052.085-.057.094-.052.088-.054.094-.05.089-.053.1-.047.088-.054.1-.043.083c-.024.048-.047.1-.071.144l-.046.1c-.021.044-.041.088-.062.132l-.037.083-.049.111-.037.088-.045.109-.036.089-.043.112-.033.087-.043.121-.028.08-.006.016h0a10.023,10.023,0,0,0-.461,1.983h0a10.215,10.215,0,0,0-.081,1.287c0,.05,0,.1,0,.149a10.154,10.154,0,0,0,.092,1.229,10.087,10.087,0,0,0,15.132,7.3m-13.684-5.747a9.028,9.028,0,0,1-.485-2.8c0-.044,0-.089,0-.133a9.16,9.16,0,0,1,.073-1.153h0a8.967,8.967,0,0,1,.413-1.776h0l.005-.015.025-.071.039-.108.029-.078.039-.1.032-.079.04-.1.033-.078.043-.1.033-.074.055-.117.042-.089q.031-.064.063-.128l.038-.074.048-.093.042-.078.048-.087.045-.079.049-.084.046-.078.052-.084.047-.076.058-.09.047-.072q.047-.072.1-.142l.049-.07.058-.083.053-.073.057-.078.055-.073.059-.076.057-.072.061-.075.057-.07.067-.079.054-.063.117-.133.054-.059.072-.078.061-.063.069-.071.063-.063.07-.069.064-.062.073-.069.063-.059.079-.072.059-.053.126-.109.057-.048.1-.08.062-.05.084-.067.066-.051.083-.063.067-.05.086-.062.066-.047.094-.065.061-.042.129-.085.041-.026.143-.089,0,0,.055-.033.1-.061.066-.038.1-.056.068-.038.1-.054.067-.035.108-.055.061-.031.139-.067.031-.015.173-.078.049-.021.126-.054.064-.026.114-.046.068-.026.114-.043.067-.024.12-.042.061-.021.146-.047.037-.012.187-.056.032-.009.154-.042.06-.015.129-.032.067-.016.125-.028.068-.014.13-.026.063-.012.15-.026.043-.007.2-.03h.009l.187-.024.056-.006.142-.015.067-.006.134-.011.069,0,.136-.008.066,0,.151-.005h.051l.2,0,.212,0h.044q.21.006.418.021l.045,0,.2.017h.011l.2.023.046.006.181.025.023,0,.2.033.05.009.166.032.035.007.189.041.054.013.15.037.047.012.18.049.061.018.133.04.06.018.169.055.069.024.115.04.072.026.157.06.08.032.095.039.085.036.144.063.093.043.072.034.1.047.045.022c.065.032.13.065.194.1l.047.025q.168.089.331.185l.023.014.012.007,0,0,.02.012.105.064.06.037.1.064.044.029q.1.062.188.127l.065.045.09.065.066.048.089.066.064.049.153.12.062.049h0l0,0,.129.108.035.03.116.1.045.04.106.1.052.048.1.094.055.054.092.093.057.059.088.092.058.063.084.093.058.066.081.094.057.067.079.1.055.069.077.1.053.069.075.1.05.069.075.1.047.068.074.109.043.065.074.114.039.062.074.121.033.056.076.13.006.011.019.035c.027.048.054.1.08.146l.02.038c.027.051.054.1.081.155l.017.035q.04.08.079.16l.016.033c.026.054.051.109.076.164l.014.031q.037.084.073.169l.011.026c.024.059.048.118.072.178l0,.013q.038.1.073.2l.016.046c.018.052.037.1.054.155v0h0a9.069,9.069,0,0,1,0,5.734h0a8.964,8.964,0,0,1-.705,1.582,9.066,9.066,0,0,1-2.144,2.542h0a9.047,9.047,0,0,1-1.108.776l0,0-.038.022a9.032,9.032,0,0,1-13.108-4.861" transform="translate(-876.599 -1317.822)" fill="#2b3467"/>
        <path id="Trazado_898799" data-name="Trazado 898799" d="M543.146,1395.967l0-.005c-.019-.056-.038-.111-.058-.166l-.02-.057q-.04-.11-.082-.218l-.005-.014c-.026-.067-.053-.133-.08-.2l-.012-.029c-.026-.063-.054-.126-.081-.188l-.016-.035q-.041-.092-.084-.183l-.017-.037c-.029-.06-.058-.119-.088-.179l-.019-.039c-.029-.058-.059-.115-.09-.173l-.023-.043c-.029-.055-.059-.109-.09-.163l-.021-.038-.007-.012c-.028-.049-.056-.1-.084-.145l-.037-.062c-.027-.045-.055-.09-.083-.135l-.043-.069-.082-.127-.048-.073-.083-.121-.052-.076-.083-.116-.056-.077-.084-.113-.059-.077-.086-.109-.062-.077-.088-.107-.063-.075-.091-.1-.065-.073-.094-.1-.065-.07-.1-.1-.064-.065-.1-.1-.061-.06-.11-.106-.057-.053-.118-.109-.05-.044-.129-.113-.039-.033-.144-.121,0,0h0l-.068-.055q-.085-.068-.171-.134l-.072-.055-.1-.074-.074-.054-.1-.072-.073-.051q-.1-.072-.21-.142l-.049-.032-.113-.071-.067-.042-.118-.071-.022-.013,0,0-.013-.008q-.2-.115-.4-.222l-.052-.027q-.108-.057-.218-.111l-.049-.024-.11-.053-.08-.037-.1-.048-.16-.07-.1-.04-.105-.043-.09-.036-.175-.067-.081-.029-.128-.045-.078-.027-.188-.061-.067-.02-.149-.044-.068-.02-.2-.054-.053-.013-.168-.041-.061-.014-.211-.046-.039-.008-.186-.036-.056-.01-.22-.036-.026,0-.2-.028-.052-.007-.228-.026H534.6l-.218-.019-.05,0q-.232-.017-.467-.024h-.05c-.078,0-.157,0-.236,0l-.228,0-.057,0-.168.006-.074,0-.151.009-.078.005-.149.012-.075.007-.159.017-.062.007-.208.027h-.01l-.221.034-.048.008-.167.03-.07.014-.145.029-.076.016-.139.031-.075.018-.144.036-.067.017-.172.047-.037.01-.209.062-.041.013-.163.053-.069.023-.134.047-.076.027-.127.047-.076.029-.128.051-.071.029-.141.06-.055.024-.193.087-.036.017-.154.074-.068.034-.121.061-.075.04-.112.06-.077.042-.11.062-.074.043-.115.068-.066.04-.159.1-.046.029-.144.095-.068.046-.1.072-.074.053-.1.069-.076.056-.093.07-.074.057-.094.074-.07.056-.108.089-.064.054-.14.121-.067.06-.088.08-.071.066-.081.077-.071.069-.078.077-.07.071-.077.079-.068.071-.081.087-.061.066q-.066.073-.131.148l-.06.071-.074.088-.064.078-.068.083-.064.081-.065.084-.062.082-.064.086-.06.082-.065.092-.055.078q-.054.079-.107.16l-.052.08-.065.1-.052.084-.057.094-.052.087-.055.094-.05.088-.053.1-.047.088-.054.1-.043.083c-.024.047-.047.095-.07.143l-.047.1-.061.131-.037.083-.049.111-.037.088-.045.109-.035.089-.043.112-.033.087c-.015.04-.029.08-.044.121l-.028.079-.006.016h0a10.017,10.017,0,0,0-.461,1.983h0a10.226,10.226,0,0,0-.081,1.287c0,.05,0,.1,0,.149a10.086,10.086,0,0,0,15.224,8.528l0,0a10.1,10.1,0,0,0,1.237-.866h0a10.123,10.123,0,0,0,2.395-2.839,10.006,10.006,0,0,0,.788-1.767h0a10.128,10.128,0,0,0,0-6.4h0m-1,6.069h0a8.964,8.964,0,0,1-.706,1.582,9.068,9.068,0,0,1-2.144,2.542h0a9.065,9.065,0,0,1-1.108.776l0,0-.038.022a9.025,9.025,0,0,1-13.511-6.557,9.1,9.1,0,0,1-.083-1.1c0-.044,0-.089,0-.133a9.138,9.138,0,0,1,.073-1.153h0a8.976,8.976,0,0,1,.413-1.776h0l.005-.015.025-.071c.013-.036.026-.073.039-.109l.029-.078.039-.1.032-.079.04-.1.033-.078.044-.1.033-.074c.018-.039.036-.078.055-.117l.042-.088q.031-.064.063-.128l.038-.074.049-.093.042-.078.048-.087.045-.079.049-.085.046-.078.051-.084.047-.076.058-.09.047-.072q.047-.072.1-.142l.049-.07.059-.083.053-.073.057-.078.055-.073.059-.076.057-.072.061-.075.057-.07.067-.079.054-.063.117-.133.054-.059.073-.078.06-.063.069-.071.063-.063.07-.069.064-.062.073-.069.063-.059.079-.072.059-.053.127-.11.056-.047.1-.08.062-.05.084-.067.066-.051.083-.063.068-.05.086-.062.066-.047.094-.065.061-.041.13-.085.04-.026.143-.09,0,0,.055-.033.1-.061.066-.038.1-.056.068-.038.1-.054.067-.035.108-.055.061-.031.14-.067.031-.015.173-.078.049-.021.126-.054.064-.026.114-.046.068-.026.114-.043.067-.024.12-.042.061-.021.146-.047.036-.012.187-.056.033-.009.154-.042.06-.015.129-.032.067-.016.125-.028.068-.014.13-.026.063-.012.15-.026.043-.007.2-.03h.008l.187-.024.056-.006.142-.015.067-.006.134-.011.069,0,.136-.008.066,0,.151-.005h.051l.2,0,.211,0h.044q.21.006.418.021l.045,0,.2.017h.011l.2.023.047.006.181.025.023,0,.2.033.05.009.166.032.035.007.189.041.054.013.151.037.047.012.18.049.061.018.133.04.06.018.169.055.069.024.115.04.072.026.157.06.08.032.095.039.085.036.144.063.093.043.072.034.1.047.045.022q.1.048.193.1l.048.025q.167.089.331.185l.023.014.012.007,0,0,.02.012.105.064.06.037.1.064.045.03q.095.062.187.126l.066.046.09.065.066.048.089.066.064.049.152.12.062.05h0l0,0,.129.108.035.03.115.1.045.04.105.1.052.048.1.094.055.054.092.093.058.059.087.092.059.063.084.093.058.066.081.094.057.068.079.1.055.069.077.1.053.069.076.1.05.069.075.1.047.068.074.109.043.065.074.114.039.062.074.121.033.056.076.13.006.011.019.035q.041.072.08.146l.02.038c.027.051.054.1.081.155l.017.035q.04.079.078.16l.016.034q.038.081.075.164l.014.032q.037.084.073.168l.011.027c.024.059.048.118.072.177l.005.014c.025.065.049.13.073.2l.017.05c.018.05.035.1.052.15v0h0a9.069,9.069,0,0,1,0,5.734" transform="translate(-496.639 -1317.822)" fill="#2b3467"/>
        <path id="Trazado_898800" data-name="Trazado 898800" d="M1169.219,1556.906a1.64,1.64,0,1,0-1.179-1.574,1.637,1.637,0,0,0,1.179,1.574m.46-2.269a.714.714,0,0,1,.112.01.692.692,0,1,1-.112-.01" transform="translate(-1108.117 -1473.984)" fill="#2b3467"/>
        <path id="Trazado_898801" data-name="Trazado 898801" d="M1011.593,1553.759a1.64,1.64,0,1,0,1.176,1.573,1.641,1.641,0,0,0-1.176-1.573m-.464,2.268a.695.695,0,0,1-.11-1.381.683.683,0,0,1,.11-.01.7.7,0,1,1,0,1.39" transform="translate(-957.7 -1473.984)" fill="#2b3467"/>
        <path id="Trazado_898802" data-name="Trazado 898802" d="M1112.815,1577.455a.444.444,0,1,0-.443.444.444.444,0,0,0,.443-.444" transform="translate(-1054.884 -1496.107)" fill="#2b3467"/>
        <path id="Trazado_898803" data-name="Trazado 898803" d="M769.174,1553.692a1.64,1.64,0,1,0,1.64,1.64,1.638,1.638,0,0,0-1.64-1.64m.112,2.325a.694.694,0,1,1,.584-.685.7.7,0,0,1-.584.685" transform="translate(-728.158 -1473.984)" fill="#2b3467"/>
        <path id="Trazado_898804" data-name="Trazado 898804" d="M611.086,1553.759a1.64,1.64,0,1,0,1.176,1.573,1.641,1.641,0,0,0-1.176-1.573m-.464,2.268a.695.695,0,0,1-.11-1.381.683.683,0,0,1,.11-.01.7.7,0,1,1,0,1.39" transform="translate(-577.74 -1473.984)" fill="#2b3467"/>
        <path id="Trazado_898805" data-name="Trazado 898805" d="M711.866,1577.01a.444.444,0,1,0,.444.444.444.444,0,0,0-.444-.444" transform="translate(-674.924 -1496.106)" fill="#2b3467"/>
        <path id="Trazado_898806" data-name="Trazado 898806" d="M865.8,1001.794a.4.4,0,0,0-.575-.546l-2.811,2.959a2.219,2.219,0,0,0,.085,3.141l1.182,1.116a1.426,1.426,0,0,1,.011,2.063l-1.3,1.248a2.219,2.219,0,0,0,.507,3.561l2.332,1.226a.4.4,0,1,0,.369-.7l-2.332-1.226a1.426,1.426,0,0,1-.326-2.289l1.3-1.248a2.218,2.218,0,0,0-.016-3.21l-1.182-1.116a1.426,1.426,0,0,1-.055-2.019Z" transform="translate(-817.509 -949.764)" fill="#2b3467"/>
        <path id="Trazado_898807" data-name="Trazado 898807" d="M1387.756,526.995v1.787a2.815,2.815,0,0,1-.016.3,2.78,2.78,0,0,0,2-2.087,3.915,3.915,0,0,0,.1-.891,3.764,3.764,0,0,0-.15-1.09,2.779,2.779,0,0,0-1.931-1.884c0,.034,0,.068,0,.1v3.763Z" transform="translate(-1316.546 -496.291)" fill="#2b3467"/>
        <path id="Trazado_898808" data-name="Trazado 898808" d="M955.926,374.24h1.382a.584.584,0,0,0,.584-.584V351.171a.584.584,0,0,0-.584-.584h-1.382a.584.584,0,0,0-.584.584v22.484a.584.584,0,0,0,.584.584" transform="translate(-906.331 -332.601)" fill="#2b3467"/>
        <path id="Trazado_898809" data-name="Trazado 898809" d="M413.053,526.995v-3.763c0-.034,0-.068,0-.1a2.779,2.779,0,0,0-1.931,1.884,3.762,3.762,0,0,0-.15,1.09,3.918,3.918,0,0,0,.1.891,2.78,2.78,0,0,0,2,2.087,2.815,2.815,0,0,1-.016-.3Z" transform="translate(-389.891 -496.291)" fill="#2b3467"/>
        <path id="Trazado_898810" data-name="Trazado 898810" d="M834.492,351.217v22.439a.584.584,0,0,0,.584.584h1.382a.584.584,0,0,0,.584-.584V351.172a.584.584,0,0,0-.584-.584h-1.382a.584.584,0,0,0-.584.584Z" transform="translate(-791.681 -332.602)" fill="#2b3467"/>
        <path id="Trazado_898811" data-name="Trazado 898811" d="M1388.862,516.2a3.759,3.759,0,0,1,.15,1.09,3.914,3.914,0,0,1-.1.891,2.745,2.745,0,0,0-2.042,2.365l2.167-.571a.376.376,0,0,0,.279-.363v-4.839a.376.376,0,0,0-.279-.363l-2.167-.572a2.468,2.468,0,0,0,1.99,2.361" transform="translate(-1315.722 -487.478)" fill="#1f2851"/>
        <path id="Trazado_898812" data-name="Trazado 898812" d="M407.381,514.316a2.775,2.775,0,0,1,.058-.477l-2.167.572a.376.376,0,0,0-.279.363v4.839a.375.375,0,0,0,.279.363l2.167.571a2.747,2.747,0,0,0-2.043-2.365,3.916,3.916,0,0,1-.1-.891,3.762,3.762,0,0,1,.15-1.09,2.779,2.779,0,0,1,1.931-1.884" transform="translate(-384.216 -487.478)" fill="#1f2851"/>
        <path id="Trazado_898813" data-name="Trazado 898813" d="M967.051,1646.453l.038-.022,0,0a9.046,9.046,0,0,0,1.108-.776h0a9.063,9.063,0,0,0,2.144-2.542,8.963,8.963,0,0,0,.706-1.582c-.049.079-3.2,5.139-8.556,5.139-5.4,0-8.557-5.14-8.557-5.14,0,.022,0,.043.005.064a9.033,9.033,0,0,0,13.108,4.861" transform="translate(-904.998 -1557.314)" fill="#a4c7d8"/>
        <path id="Trazado_898814" data-name="Trazado 898814" d="M561.988,1646.668c-5.4,0-8.557-5.14-8.557-5.14,0,.022,0,.043.005.064a9.033,9.033,0,0,0,13.108,4.861l.038-.022,0,0a9.042,9.042,0,0,0,1.108-.776h0a9.06,9.06,0,0,0,2.144-2.542,8.955,8.955,0,0,0,.706-1.582c-.049.079-3.2,5.139-8.556,5.139" transform="translate(-525.039 -1557.314)" fill="#a4c7d8"/>
        <rect id="Rectángulo_403234" data-name="Rectángulo 403234" width="0.735" height="22.199" transform="translate(51.562 18.615)" fill="#a4c7d8"/>
        <path id="Trazado_898815" data-name="Trazado 898815" d="M1229.273,377.684c-1,1.38-4.668,1.245-4.817,3.814a5.072,5.072,0,0,1-1.958,3.555,2.775,2.775,0,0,0,2.711-2.774,2.776,2.776,0,0,1,2.775-2.775,2.771,2.771,0,0,0,2.758-2.474,2.813,2.813,0,0,0,.016-.3v-5.55c0-.034,0-.068,0-.1a2.77,2.77,0,0,0-2.772-2.673,2.775,2.775,0,0,1-2.775-2.775,2.775,2.775,0,0,0-2.775-2.775h-.182a5.2,5.2,0,0,1,2.2,3.75c.146,2.509,3.646,2.44,4.742,3.72a1.3,1.3,0,0,1,.323.791c.047.792.059,1.4.056,1.846,0,.241-.007.438-.015.594q-.024.5,0,.993c.005.111.01.242.012.395.008.464,0,1.129-.054,2.045a1.287,1.287,0,0,1-.247.7" transform="translate(-1159.548 -344.24)" fill="#a4c7d8"/>
        <path id="Trazado_898816" data-name="Trazado 898816" d="M1031.2,443.017a1.431,1.431,0,1,0,1.431,1.431,1.431,1.431,0,0,0-1.431-1.431m0,2.663a1.233,1.233,0,1,1,1.233-1.233,1.233,1.233,0,0,1-1.233,1.233" transform="translate(-976.938 -420.289)" fill="#a4c7d8"/>
        <path id="Trazado_898817" data-name="Trazado 898817" d="M1031.2,659.646a1.431,1.431,0,1,0,1.431,1.431,1.431,1.431,0,0,0-1.431-1.431m0,2.663a1.233,1.233,0,1,1,1.233-1.233,1.233,1.233,0,0,1-1.233,1.233" transform="translate(-976.938 -625.805)" fill="#a4c7d8"/>
        <path id="Trazado_898818" data-name="Trazado 898818" d="M820.156,366.8v18.255h.735v-22.2h-.735Z" transform="translate(-778.08 -344.239)" fill="#a4c7d8"/>
        <path id="Trazado_898819" data-name="Trazado 898819" d="M459.748,385.053a5.073,5.073,0,0,1-1.958-3.555c-.149-2.569-3.817-2.434-4.817-3.814a1.287,1.287,0,0,1-.247-.7c-.054-.916-.062-1.581-.054-2.045,0-.153.007-.284.013-.394q.024-.5,0-.993c-.007-.156-.013-.352-.015-.594,0-.449.01-1.054.056-1.846a1.3,1.3,0,0,1,.323-.791c1.1-1.28,4.6-1.211,4.742-3.72a5.2,5.2,0,0,1,2.2-3.75h-.182a2.775,2.775,0,0,0-2.775,2.775,2.775,2.775,0,0,1-2.775,2.775,2.769,2.769,0,0,0-2.772,2.673c0,.034,0,.068,0,.1v5.55a2.813,2.813,0,0,0,.016.3,2.774,2.774,0,0,0,2.758,2.474,2.775,2.775,0,0,1,2.775,2.775,2.775,2.775,0,0,0,2.711,2.774" transform="translate(-428.325 -344.239)" fill="#a4c7d8"/>
        <path id="Trazado_898820" data-name="Trazado 898820" d="M755.442,445.877a1.431,1.431,0,1,0-1.431-1.43,1.431,1.431,0,0,0,1.431,1.43m0-2.663a1.233,1.233,0,1,1-1.233,1.233,1.233,1.233,0,0,1,1.233-1.233" transform="translate(-715.328 -420.288)" fill="#a4c7d8"/>
        <path id="Trazado_898821" data-name="Trazado 898821" d="M755.442,662.508a1.431,1.431,0,1,0-1.431-1.43,1.431,1.431,0,0,0,1.431,1.43m0-2.663a1.233,1.233,0,1,1-1.233,1.233,1.233,1.233,0,0,1,1.233-1.233" transform="translate(-715.328 -625.806)" fill="#a4c7d8"/>
        <rect id="Rectángulo_403235" data-name="Rectángulo 403235" width="1.957" height="3.197" transform="translate(45.362 22.56)" fill="#e0e0e0"/>
        <rect id="Rectángulo_403236" data-name="Rectángulo 403236" width="1.957" height="3.197" transform="translate(45.362 33.673)" fill="#e0e0e0"/>
        <path id="Trazado_898822" data-name="Trazado 898822" d="M1034.858,446.874a1.233,1.233,0,1,0,1.233,1.233,1.233,1.233,0,0,0-1.233-1.233m.914,1.371H1035v.768a.139.139,0,1,1-.277,0v-.768h-.768a.139.139,0,0,1,0-.277h.768V447.2a.139.139,0,1,1,.277,0v.768h.768a.139.139,0,0,1,0,.277" transform="translate(-980.598 -423.948)" fill="#e0e0e0"/>
        <path id="Trazado_898823" data-name="Trazado 898823" d="M1034.858,663.5a1.233,1.233,0,1,0,1.233,1.233,1.233,1.233,0,0,0-1.233-1.233m1.053,1.233a.139.139,0,0,1-.139.139H1035v.768a.139.139,0,1,1-.277,0v-.768h-.767a.139.139,0,1,1,0-.277h.767v-.768a.139.139,0,1,1,.277,0v.768h.768a.139.139,0,0,1,.139.139" transform="translate(-980.598 -629.465)" fill="#e0e0e0"/>
        <path id="Trazado_898824" data-name="Trazado 898824" d="M759.1,446.874a1.233,1.233,0,1,0,1.233,1.233,1.233,1.233,0,0,0-1.233-1.233m.9,1.371h-.768v.768a.139.139,0,1,1-.277,0v-.768h-.768a.139.139,0,0,1,0-.277h.768V447.2a.139.139,0,1,1,.277,0v.768H760a.139.139,0,0,1,0,.277" transform="translate(-718.988 -423.948)" fill="#e0e0e0"/>
        <path id="Trazado_898825" data-name="Trazado 898825" d="M759.1,663.5a1.233,1.233,0,1,0,1.233,1.233A1.233,1.233,0,0,0,759.1,663.5m1.037,1.233a.139.139,0,0,1-.139.139h-.768v.768a.139.139,0,0,1-.277,0v-.768h-.768a.139.139,0,1,1,0-.277h.768v-.768a.139.139,0,0,1,.277,0v.768H760a.139.139,0,0,1,.139.139" transform="translate(-718.988 -629.465)" fill="#e0e0e0"/>
        <path id="Trazado_898826" data-name="Trazado 898826" d="M923.715,439.74h-1.369v3.2h1.369a1.6,1.6,0,0,0,.323-.033h0v-3.132h0a1.607,1.607,0,0,0-.323-.033" transform="translate(-875.028 -417.18)" fill="#c6c6c6"/>
        <path id="Trazado_898827" data-name="Trazado 898827" d="M923.715,656.372h-1.369v3.2h1.369a1.607,1.607,0,0,0,.323-.033h0V656.4h0a1.6,1.6,0,0,0-.323-.033" transform="translate(-875.028 -622.699)" fill="#c6c6c6"/>
        <path id="Trazado_898828" data-name="Trazado 898828" d="M1039.391,451.438h-.768v-.768a.139.139,0,1,0-.277,0v.768h-.768a.139.139,0,0,0,0,.277h.768v.768a.139.139,0,1,0,.277,0v-.768h.768a.139.139,0,0,0,0-.277" transform="translate(-984.217 -427.419)" fill="#c6c6c6"/>
        <path id="Trazado_898829" data-name="Trazado 898829" d="M1039.391,668.068h-.768V667.3a.139.139,0,0,0-.277,0v.768h-.768a.139.139,0,0,0,0,.277h.768v.768a.139.139,0,1,0,.277,0v-.768h.768a.139.139,0,0,0,0-.277" transform="translate(-984.217 -632.935)" fill="#c6c6c6"/>
        <path id="Trazado_898830" data-name="Trazado 898830" d="M761.508,451.716h.768v.768a.139.139,0,1,0,.277,0v-.768h.768a.139.139,0,0,0,0-.277h-.768v-.768a.139.139,0,1,0-.277,0v.768h-.768a.139.139,0,0,0,0,.277" transform="translate(-722.309 -427.419)" fill="#c6c6c6"/>
        <path id="Trazado_898831" data-name="Trazado 898831" d="M761.508,668.346h.768v.768a.139.139,0,1,0,.277,0v-.768h.768a.139.139,0,0,0,0-.277h-.768V667.3a.139.139,0,0,0-.277,0v.768h-.768a.139.139,0,0,0,0,.277" transform="translate(-722.309 -632.935)" fill="#c6c6c6"/>
      </g>
    </g>
  </g>
</svg>
