<svg xmlns="http://www.w3.org/2000/svg" width="90" height="90" viewBox="0 0 90 90">
  <g id="Grupo_1108635" data-name="Grupo 1108635" transform="translate(-205.051 -2188)">
    <rect id="Rectángulo_403338" data-name="Rectángulo 403338" width="90" height="90" transform="translate(205.051 2188)" fill="#f7eca4"/>
    <g id="Grupo_1108634" data-name="Grupo 1108634" transform="translate(217.051 2233.323)">
      <g id="Grupo_1108633" data-name="Grupo 1108633" transform="translate(0.972 -36.323)">
        <path id="Trazado_899280" data-name="Trazado 899280" d="M105.265,135.034H52.5V92.9L78.883,80l26.383,12.9Z" transform="translate(-46.666 -64.919)" fill="#f5f5f7"/>
        <path id="Trazado_899281" data-name="Trazado 899281" d="M242.945,80,241,80.951,265.438,92.9v15.969a29.345,29.345,0,0,1-15.45,25.847l-.593.319h19.932V92.9Z" transform="translate(-210.728 -64.919)" fill="#e5e1e5"/>
        <g id="Grupo_1108625" data-name="Grupo 1108625" transform="translate(31.244 56.203)">
          <g id="Grupo_1108624" data-name="Grupo 1108624">
            <path id="Trazado_899282" data-name="Trazado 899282" d="M249.472,410.13a.972.972,0,0,1-.972-.972v-11a.972.972,0,1,1,1.945,0v11A.972.972,0,0,1,249.472,410.13Z" transform="translate(-248.5 -397.19)" fill="#e5e1e5"/>
          </g>
        </g>
        <g id="Grupo_1108630" data-name="Grupo 1108630" transform="translate(25.766 38.172)">
          <g id="Grupo_1108628" data-name="Grupo 1108628" transform="translate(2.561)">
            <g id="Grupo_1108626" data-name="Grupo 1108626" transform="translate(5.834)">
              <path id="Trazado_899283" data-name="Trazado 899283" d="M271.972,264.4a.972.972,0,0,1-.972-.972v-4.34a.972.972,0,0,1,1.945,0v4.34A.972.972,0,0,1,271.972,264.4Z" transform="translate(-271 -258.111)" fill="#e5e1e5"/>
            </g>
            <g id="Grupo_1108627" data-name="Grupo 1108627">
              <path id="Trazado_899284" data-name="Trazado 899284" d="M226.972,264.4a.972.972,0,0,1-.972-.972v-4.34a.972.972,0,0,1,1.945,0v4.34A.972.972,0,0,1,226.972,264.4Z" transform="translate(-226 -258.111)" fill="#e5e1e5"/>
            </g>
          </g>
          <g id="Grupo_1108629" data-name="Grupo 1108629" transform="translate(0 5.313)">
            <path id="Trazado_899285" data-name="Trazado 899285" d="M212.7,312.78a6.45,6.45,0,0,1-6.45-6.45v-6.363a.878.878,0,0,1,.878-.878h11.146a.878.878,0,0,1,.878.878v6.363A6.45,6.45,0,0,1,212.7,312.78Z" transform="translate(-206.246 -299.09)" fill="#60b7ff"/>
          </g>
          <path id="Trazado_899286" data-name="Trazado 899286" d="M248.517,299.09h-3.889a.877.877,0,0,1,.878.878v6.363A6.453,6.453,0,0,1,241,312.482a6.454,6.454,0,0,0,8.395-6.151v-6.363A.877.877,0,0,0,248.517,299.09Z" transform="translate(-236.494 -293.777)" fill="#26a6fe"/>
        </g>
        <path id="Trazado_899287" data-name="Trazado 899287" d="M71,71.868,39.717,56.76,8.43,71.868a.648.648,0,0,1-.93-.584v-5.82a.648.648,0,0,1,.366-.584L39.717,49.5l31.85,15.38a.648.648,0,0,1,.366.584v5.82a.648.648,0,0,1-.93.584Z" transform="translate(-7.5 -38.373)" fill="#d77f4a"/>
        <g id="Grupo_1108631" data-name="Grupo 1108631" transform="translate(0 11.127)">
          <path id="Trazado_899288" data-name="Trazado 899288" d="M274.795,64.88,242.945,49.5,241,50.439l27.9,13.473a4.6,4.6,0,0,1,2.371,3.778v2.749l2.959,1.429a.648.648,0,0,0,.93-.584v-5.82A.648.648,0,0,0,274.795,64.88Z" transform="translate(-210.728 -49.5)" fill="#c86d36"/>
          <path id="Trazado_899289" data-name="Trazado 899289" d="M35.827,90.632,28.9,89.875l-5.018,2.413a5.7,5.7,0,0,1-3.227,5.587L7.5,104.153v2.272a.648.648,0,0,0,.93.584L37.772,92.84Z" transform="translate(-7.5 -84.641)" fill="#c86d36"/>
        </g>
        <path id="Trazado_899290" data-name="Trazado 899290" d="M71.155,474.5H8.278a.778.778,0,0,0-.778.778v2.334a.778.778,0,0,0,.778.778H71.155a.778.778,0,0,0,.778-.778v-2.334A.778.778,0,0,0,71.155,474.5Z" transform="translate(-7.5 -408.275)" fill="#9b8e99"/>
        <path id="Trazado_899291" data-name="Trazado 899291" d="M472.389,474.5H468.5a.778.778,0,0,1,.778.778v2.334a.778.778,0,0,1-.778.778h3.889a.778.778,0,0,0,.778-.778v-2.334A.778.778,0,0,0,472.389,474.5Z" transform="translate(-408.734 -408.275)" fill="#918291"/>
        <g id="Grupo_1108632" data-name="Grupo 1108632" transform="translate(12.8 0)">
          <circle id="Elipse_11585" data-name="Elipse 11585" cx="13.728" cy="13.728" r="13.728" transform="translate(0 19.412) rotate(-45)" fill="#fedf30"/>
          <path id="Trazado_899292" data-name="Trazado 899292" d="M206.407,12.33A13.732,13.732,0,0,1,194.3,36.589,13.73,13.73,0,1,0,206.407,12.33Z" transform="translate(-182.881 -6.022)" fill="#fac600"/>
          <path id="Trazado_899293" data-name="Trazado 899293" d="M216.81,41.452a1.032,1.032,0,0,1,1.034,1.378c-.691,1.785-1.456,3.547-2.2,5.31-.045.107-.013.151.076.2,1.4.807,2.791,1.618,4.189,2.423a1.052,1.052,0,0,1,.224,1.748q-3.8,3.6-7.605,7.2a1.062,1.062,0,0,1-1.28.283,1,1,0,0,1-.514-1.271c.265-.684.555-1.358.836-2.035q.681-1.638,1.369-3.274c.047-.111.008-.151-.078-.2-1.414-.813-2.843-1.61-4.24-2.454a1.047,1.047,0,0,1-.173-1.718q3.8-3.6,7.605-7.2a1.211,1.211,0,0,1,.76-.389Z" transform="translate(-194.871 -31.369)" fill="#fea95c"/>
          <path id="Trazado_899294" data-name="Trazado 899294" d="M237.28,50.764c-1.4-.8-2.792-1.616-4.189-2.423-.088-.051-.121-.1-.076-.2.746-1.763,1.511-3.525,2.2-5.31a1.032,1.032,0,0,0-1.034-1.378,1.211,1.211,0,0,0-.76.389q-1.367,1.3-2.74,2.6c-.118.383-.834,1.867-1.232,2.9a1.178,1.178,0,0,0,.509,1.443q1.714.992,3.429,1.983a1.052,1.052,0,0,1,.224,1.748q-2.421,2.3-4.847,4.589c-.226.539-.453,1.078-.664,1.623a1,1,0,0,0,.514,1.272,1.062,1.062,0,0,0,1.28-.283q3.8-3.6,7.605-7.2A1.052,1.052,0,0,0,237.28,50.764Z" transform="translate(-212.245 -31.369)" fill="#fe9738"/>
        </g>
      </g>
      <path id="Trazado_899295" data-name="Trazado 899295" d="M39.293,13.843Q37.5,12.814,35.72,11.777c.65-1.526,1.321-3.1,1.932-4.674a1.954,1.954,0,0,0-.215-1.819,2.033,2.033,0,0,0-3.156-.225c-2.549,2.425-5.067,4.8-7.6,7.2a2.07,2.07,0,0,0-.662,1.728,2.043,2.043,0,0,0,1,1.529c1.212.731,2.432,1.42,3.643,2.112-.6,1.421-1.345,3.143-1.934,4.668a1.971,1.971,0,0,0,1,2.5,2,2,0,0,0,2.372-.452c2.479-2.359,5.117-4.84,7.606-7.2a2.057,2.057,0,0,0,.66-1.739A2.088,2.088,0,0,0,39.293,13.843Zm-.93,1.885c-2.662,2.525-7.514,7.2-7.77,7.323-.019-.007-.066-.025-.054-.055.673-1.757,1.508-3.657,2.194-5.282a1.1,1.1,0,0,0-.489-1.421c-1.405-.809-2.826-1.6-4.222-2.443-.1-.063-.1-.092-.007-.18,1.668-1.581,7.183-6.935,7.753-7.32.051.011.071.039.071.05-.687,1.772-1.454,3.541-2.191,5.282a1.1,1.1,0,0,0,.485,1.423c1.4.807,2.792,1.62,4.191,2.423.142.082.148.1.039.2ZM59.572,50.351a.972.972,0,0,0,.972-.972V27.967l3.51,1.695A1.621,1.621,0,0,0,66.378,28.2v-5.82a1.627,1.627,0,0,0-.916-1.459L47.7,12.346a14.7,14.7,0,1,0-28.462,6.99L1.945,27.686v-5.1l13.868-6.7a.972.972,0,0,0-.846-1.751L.919,20.922A1.628,1.628,0,0,0,0,22.382V28.2a1.621,1.621,0,0,0,2.325,1.46l3.509-1.695V60.544H1.75A1.752,1.752,0,0,0,0,62.294v2.334a1.752,1.752,0,0,0,1.75,1.75H64.628a1.752,1.752,0,0,0,1.75-1.75V62.294a1.752,1.752,0,0,0-1.75-1.75H60.544V53.268a.972.972,0,1,0-1.945,0v7.276H34.161V53.373a7.432,7.432,0,0,0,6.45-7.357V39.653a1.852,1.852,0,0,0-1.85-1.85H37.078V34.435a.972.972,0,1,0-1.945,0V37.8H31.244V34.435a.972.972,0,1,0-1.945,0V37.8H27.616a1.852,1.852,0,0,0-1.85,1.85v6.363a7.432,7.432,0,0,0,6.45,7.357v7.171H7.779V27.028l12.2-5.889a14.7,14.7,0,0,0,26.427,0l12.2,5.889V49.379A.972.972,0,0,0,59.572,50.351ZM27.711,46.016V39.748H38.667v6.268a5.478,5.478,0,0,1-10.956,0ZM64.433,62.489v1.945H1.945V62.489ZM33.189,27.456A12.756,12.756,0,1,1,45.945,14.7,12.77,12.77,0,0,1,33.189,27.456ZM47.14,19.335A14.643,14.643,0,0,0,47.89,14.7c0-.035,0-.069,0-.1l16.545,7.989v5.1Z" transform="translate(0 -31.614)"/>
    </g>
  </g>
</svg>
